<?xml version="1.0" encoding="UTF-8" standalone="no"?>
<svg
   xmlns:dc="http://purl.org/dc/elements/1.1/"
   xmlns:cc="http://creativecommons.org/ns#"
   xmlns:rdf="http://www.w3.org/1999/02/22-rdf-syntax-ns#"
   xmlns:svg="http://www.w3.org/2000/svg"
   xmlns="http://www.w3.org/2000/svg"
   xmlns:sodipodi="http://sodipodi.sourceforge.net/DTD/sodipodi-0.dtd"
   xmlns:inkscape="http://www.inkscape.org/namespaces/inkscape"
   width="210mm"
   height="297mm"
   viewBox="0 0 210 297"
   version="1.1"
   id="svg877"
   sodipodi:docname="airplane1.svg"
   inkscape:version="1.0.2-2 (e86c870879, 2021-01-15)">
  <defs
     id="defs871" />
  <sodipodi:namedview
     id="base"
     pagecolor="#000000"
     bordercolor="#666666"
     borderopacity="1.0"
     inkscape:pageopacity="0"
     inkscape:pageshadow="2"
     inkscape:zoom="0.35776835"
     inkscape:cx="257.84509"
     inkscape:cy="621.34537"
     inkscape:document-units="mm"
     inkscape:current-layer="layer1"
     inkscape:document-rotation="0"
     showgrid="false"
     showguides="false"
     inkscape:window-width="1366"
     inkscape:window-height="745"
     inkscape:window-x="-8"
     inkscape:window-y="-8"
     inkscape:window-maximized="1" />
  <metadata
     id="metadata874">
    <rdf:RDF>
      <cc:Work
         rdf:about="">
        <dc:format>image/svg+xml</dc:format>
        <dc:type
           rdf:resource="http://purl.org/dc/dcmitype/StillImage" />
        <dc:title></dc:title>
      </cc:Work>
    </rdf:RDF>
  </metadata>
  <g
     inkscape:label="Layer 1"
     inkscape:groupmode="layer"
     id="layer1">
    <path
       style="fill:#ffffff;fill-opacity:1;stroke:none;stroke-width:0.575225px;stroke-linecap:butt;stroke-linejoin:miter;stroke-opacity:1"
       d="m 175.67731,272.14167 c 0,0 -47.95909,-101.65054 -62.19799,-104.10014 -8.50869,-1.46391 -50.036962,50.037 -50.036962,50.037 l 11.377583,40.89121 c 0,0 -1.982585,19.7229 -5.532895,14.75665 L 31.749593,230.03964 c 0,0 -12.620043,5.76497 -14.726648,3.64792 -2.09106,-2.09529 3.711963,-14.66261 3.711963,-14.66261 l -43.686822,-37.53751 c -4.70349,-4.0409 14.7567226,-5.53282 14.7567226,-5.53282 l 40.8911944,11.37752 c 0,0 50.330346,-42.59196 50.037033,-50.03697 C 82.054673,120.07544 -21.366981,75.097412 -21.366981,75.097412 -32.148814,68.655516 6.0793446,64.11238 20.522041,64.0191 57.748766,63.778416 116.94207,102.43885 128.85246,91.175659 L 178.46851,41.55964 c 40.23028,-40.2302576 71.21271,-9.720001 30.74639,30.74635 l -49.616,49.61603 c -11.93054,11.93053 26.84967,71.30211 26.69209,108.56919 -0.0605,14.32694 -4.04578,52.64316 -10.61368,41.65046 z"
       id="path1440"
       sodipodi:nodetypes="ssccccscsccssacsssas" />
  </g>
</svg>
