<?xml version="1.0" encoding="UTF-8" standalone="no"?>
<svg
   xmlns:dc="http://purl.org/dc/elements/1.1/"
   xmlns:cc="http://creativecommons.org/ns#"
   xmlns:rdf="http://www.w3.org/1999/02/22-rdf-syntax-ns#"
   xmlns:svg="http://www.w3.org/2000/svg"
   xmlns="http://www.w3.org/2000/svg"
   xmlns:sodipodi="http://sodipodi.sourceforge.net/DTD/sodipodi-0.dtd"
   xmlns:inkscape="http://www.inkscape.org/namespaces/inkscape"
   width="210mm"
   height="297mm"
   viewBox="0 0 210 297"
   version="1.1"
   id="svg8"
   inkscape:version="1.0.2-2 (e86c870879, 2021-01-15)"
   sodipodi:docname="airplane2.svg">
  <defs
     id="defs2" />
  <sodipodi:namedview
     id="base"
     pagecolor="#000000"
     bordercolor="#666666"
     borderopacity="1.0"
     inkscape:pageopacity="0"
     inkscape:pageshadow="2"
     inkscape:zoom="0.35"
     inkscape:cx="265.3157"
     inkscape:cy="580.03538"
     inkscape:document-units="mm"
     inkscape:current-layer="layer1"
     inkscape:document-rotation="0"
     showgrid="false"
     inkscape:window-width="1366"
     inkscape:window-height="745"
     inkscape:window-x="-8"
     inkscape:window-y="-8"
     inkscape:window-maximized="1" />
  <metadata
     id="metadata5">
    <rdf:RDF>
      <cc:Work
         rdf:about="">
        <dc:format>image/svg+xml</dc:format>
        <dc:type
           rdf:resource="http://purl.org/dc/dcmitype/StillImage" />
        <dc:title></dc:title>
      </cc:Work>
    </rdf:RDF>
  </metadata>
  <g
     inkscape:label="Layer 1"
     inkscape:groupmode="layer"
     id="layer1">
    <path
       id="path860"
       style="fill:#000000;fill-opacity:1;stroke:none;stroke-width:0.928882px;stroke-linecap:butt;stroke-linejoin:miter;stroke-opacity:1"
       d="m 203.7637,196.41544 c -0.23609,0.2606 -0.57486,0.47681 -0.78469,0.74385 -0.5452,0.69112 -0.9924,1.39711 -1.2907,2.1066 -0.29745,0.7085 -0.44986,1.42068 -0.40642,2.11849 0.0528,0.87166 0.35023,1.72569 0.82927,2.55846 0.47946,0.83176 1.1406,1.63895 1.92123,2.41125 0.78109,0.77216 1.68074,1.51104 2.63959,2.2042 0.95932,0.69338 1.97615,1.34217 2.9901,1.93586 0.65719,0.38486 1.16213,0.58131 1.79946,0.91809 2.71617,-1.97235 1.13843,-6.57749 -7.69784,-14.9968 z" />
    <path
       id="path866"
       style="fill:#ffffff;fill-opacity:1;stroke:none;stroke-width:0.928882px;stroke-linecap:butt;stroke-linejoin:miter;stroke-opacity:1"
       d="m -1.553323,71.50989 c 0,0 -5.5948396,41.17629 4.232268,46.94336 0,0 63.389556,34.14447 70.185941,38.10642 12.265147,7.14686 -27.925308,21.64104 -27.925308,21.64104 0,0 22.350432,3.30454 33.392497,1.78157 8.865878,-1.22285 25.422185,-8.63391 25.422185,-8.63391 l 85.45895,38.99075 c 8.21107,2.08929 18.62504,3.70498 22.24833,1.07312 -0.63733,-0.33807 -1.14227,-0.53323 -1.79946,-0.91809 -1.01395,-0.59369 -2.03078,-1.24248 -2.9901,-1.93586 -0.95885,-0.69316 -1.8585,-1.43204 -2.63959,-2.2042 -0.78063,-0.7723 -1.44177,-1.57949 -1.92123,-2.41125 -0.47904,-0.83277 -0.77521,-1.6868 -0.82927,-2.55846 -0.0425,-0.69781 0.1084,-1.40999 0.40642,-2.11849 0.29819,-0.70949 0.7455,-1.41548 1.2907,-2.1066 0.21217,-0.26803 0.54752,-0.48165 0.78469,-0.74385 -24.84559,-19.05045 -63.84563,-32.81995 -94.00648,-46.95553 0,0 -6.57685,-17.67461 -12.253917,-25.02599 -7.397977,-9.58107 -27.515213,-23.69986 -27.515213,-23.69986 0,0 21.869571,40.90917 6.98869,33.36266 C 59.038356,125.00019 15.015957,106.94544 15.015957,106.94544 7.1444197,101.79759 3.6896183,96.558685 5.0160241,84.662226 5.6048109,79.381118 -1.553323,71.50989 -1.553323,71.50989 Z"
       sodipodi:nodetypes="ccscacccsssssssccscscsc" />
  </g>
</svg>
